<mxfile host="www.draw.io" modified="2019-12-04T06:44:31.352Z" agent="Mozilla/5.0 (Windows NT 6.1; Win64; x64) AppleWebKit/537.36 (KHTML, like Gecko) Chrome/78.0.3904.108 Safari/537.36" etag="4pYBHJpTwRxu7n39A-ic" version="12.3.6" type="github" pages="1">
  <diagram id="ZXlHenDcQ8fB9-fCUqQw" name="第 1 页">
    <mxGraphModel dx="1038" dy="572" grid="1" gridSize="10" guides="1" tooltips="1" connect="1" arrows="1" fold="1" page="1" pageScale="1" pageWidth="2339" pageHeight="3300" math="0" shadow="0">
      <root>
        <mxCell id="0"/>
        <mxCell id="1" parent="0"/>
        <mxCell id="dsuj58FTNG9rejuF7BOc-1" value="按键设计" style="rounded=1;fillColor=#0065FF;strokeColor=none;html=1;fontColor=#ffffff;align=center;verticalAlign=middle;whiteSpace=wrap;fontSize=18;fontStyle=1;arcSize=50" vertex="1" parent="1">
          <mxGeometry x="260" y="20" width="410" height="40" as="geometry"/>
        </mxCell>
        <mxCell id="dsuj58FTNG9rejuF7BOc-2" value="名称" style="fillColor=none;strokeColor=none;html=1;fontSize=11;fontStyle=0;align=center;fontColor=#596780;fontStyle=1;fontSize=11" vertex="1" parent="1">
          <mxGeometry x="138.5" y="227.5" width="60" height="20" as="geometry"/>
        </mxCell>
        <mxCell id="dsuj58FTNG9rejuF7BOc-3" value="删除" style="rounded=1;fillColor=#0057D8;align=center;strokeColor=none;html=1;fontColor=#ffffff;fontSize=12" vertex="1" parent="1">
          <mxGeometry x="460" y="221" width="86" height="33" as="geometry"/>
        </mxCell>
        <mxCell id="dsuj58FTNG9rejuF7BOc-4" value="" style="rounded=1;arcSize=9;fillColor=#F7F8F9;align=left;spacingLeft=5;strokeColor=#DEE1E6;html=1;strokeWidth=2;fontSize=12" vertex="1" parent="1">
          <mxGeometry x="215" y="222.5" width="100" height="30" as="geometry"/>
        </mxCell>
        <mxCell id="dsuj58FTNG9rejuF7BOc-5" value="保存" style="rounded=1;fillColor=#0057D8;align=center;strokeColor=none;html=1;fontColor=#ffffff;fontSize=12" vertex="1" parent="1">
          <mxGeometry x="569.5" y="222.5" width="86" height="33" as="geometry"/>
        </mxCell>
        <mxCell id="dsuj58FTNG9rejuF7BOc-6" value="生成" style="rounded=1;fillColor=#0057D8;align=center;strokeColor=none;html=1;fontColor=#ffffff;fontSize=12" vertex="1" parent="1">
          <mxGeometry x="348.5" y="219.5" width="86" height="33" as="geometry"/>
        </mxCell>
        <mxCell id="dsuj58FTNG9rejuF7BOc-7" value="类型" style="fillColor=none;strokeColor=none;html=1;fontSize=11;fontStyle=0;align=center;fontColor=#596780;fontStyle=1;fontSize=11" vertex="1" parent="1">
          <mxGeometry x="121.5" y="972.5" width="60" height="20" as="geometry"/>
        </mxCell>
        <mxCell id="dsuj58FTNG9rejuF7BOc-8" value="" style="rounded=1;arcSize=9;fillColor=#F7F8F9;align=left;spacingLeft=5;strokeColor=#DEE1E6;html=1;strokeWidth=2;fontSize=12" vertex="1" parent="1">
          <mxGeometry x="190" y="967.5" width="100" height="30" as="geometry"/>
        </mxCell>
        <mxCell id="dsuj58FTNG9rejuF7BOc-9" value="正常" style="html=1;shadow=0;dashed=0;shape=mxgraph.atlassian.checkbox_2;fillColor=#0057D8;strokeColor=none;align=left;verticalAlign=middle;fontStyle=0;fontSize=12;labelPosition=right;verticalLabelPosition=middle;spacingLeft=10" vertex="1" parent="1">
          <mxGeometry x="332" y="976.5" width="12" height="12" as="geometry"/>
        </mxCell>
        <mxCell id="dsuj58FTNG9rejuF7BOc-10" value="组合" style="rounded=1;fillColor=#F0F2F5;strokeColor=#D8DCE3;align=left;verticalAlign=middle;fontStyle=0;fontSize=12;labelPosition=right;verticalLabelPosition=middle;spacingLeft=10;html=1;shadow=0;dashed=0" vertex="1" parent="1">
          <mxGeometry x="411.5" y="976.5" width="12" height="12" as="geometry"/>
        </mxCell>
        <mxCell id="dsuj58FTNG9rejuF7BOc-11" value="动态" style="rounded=1;fillColor=#F0F2F5;strokeColor=#D8DCE3;align=left;verticalAlign=middle;fontStyle=0;fontSize=12;labelPosition=right;verticalLabelPosition=middle;spacingLeft=10;html=1;shadow=0;dashed=0;arcSize=0;" vertex="1" parent="1">
          <mxGeometry x="496.5" y="976.5" width="12" height="12" as="geometry"/>
        </mxCell>
        <mxCell id="dsuj58FTNG9rejuF7BOc-12" value="盲盒" style="rounded=1;fillColor=#F0F2F5;strokeColor=#D8DCE3;align=left;verticalAlign=middle;fontStyle=0;fontSize=12;labelPosition=right;verticalLabelPosition=middle;spacingLeft=10;html=1;shadow=0;dashed=0;arcSize=0;" vertex="1" parent="1">
          <mxGeometry x="581.5" y="977.5" width="12" height="12" as="geometry"/>
        </mxCell>
        <mxCell id="dsuj58FTNG9rejuF7BOc-13" value="宽" style="fillColor=none;strokeColor=none;html=1;fontSize=11;fontStyle=0;align=center;fontColor=#596780;fontStyle=1;fontSize=11" vertex="1" parent="1">
          <mxGeometry x="120" y="1052.5" width="60" height="20" as="geometry"/>
        </mxCell>
        <mxCell id="dsuj58FTNG9rejuF7BOc-14" value="200" style="rounded=1;arcSize=9;fillColor=#F7F8F9;align=left;spacingLeft=5;strokeColor=#DEE1E6;html=1;strokeWidth=2;fontSize=12" vertex="1" parent="1">
          <mxGeometry x="200" y="1047.5" width="100" height="30" as="geometry"/>
        </mxCell>
        <mxCell id="dsuj58FTNG9rejuF7BOc-15" value="高" style="fillColor=none;strokeColor=none;html=1;fontSize=11;fontStyle=0;align=center;fontColor=#596780;fontStyle=1;fontSize=11" vertex="1" parent="1">
          <mxGeometry x="380" y="1052.5" width="60" height="20" as="geometry"/>
        </mxCell>
        <mxCell id="dsuj58FTNG9rejuF7BOc-16" value="100" style="rounded=1;arcSize=9;fillColor=#F7F8F9;align=left;spacingLeft=5;strokeColor=#DEE1E6;html=1;strokeWidth=2;fontSize=12" vertex="1" parent="1">
          <mxGeometry x="450" y="1047.5" width="100" height="30" as="geometry"/>
        </mxCell>
        <mxCell id="dsuj58FTNG9rejuF7BOc-17" value="图标" style="fillColor=none;strokeColor=none;html=1;fontSize=11;fontStyle=0;align=center;fontColor=#596780;fontStyle=1;fontSize=11" vertex="1" parent="1">
          <mxGeometry x="121.5" y="1092.5" width="60" height="20" as="geometry"/>
        </mxCell>
        <mxCell id="dsuj58FTNG9rejuF7BOc-18" value="xxx.png" style="rounded=1;arcSize=9;fillColor=#F7F8F9;align=left;spacingLeft=5;strokeColor=#DEE1E6;html=1;strokeWidth=2;fontSize=12" vertex="1" parent="1">
          <mxGeometry x="201.5" y="1087.5" width="100" height="30" as="geometry"/>
        </mxCell>
        <mxCell id="dsuj58FTNG9rejuF7BOc-19" value="图标按下" style="fillColor=none;strokeColor=none;html=1;fontSize=11;fontStyle=0;align=center;fontColor=#596780;fontStyle=1;fontSize=11" vertex="1" parent="1">
          <mxGeometry x="436.5" y="1092.5" width="60" height="20" as="geometry"/>
        </mxCell>
        <mxCell id="dsuj58FTNG9rejuF7BOc-20" value="xxx.png" style="rounded=1;arcSize=9;fillColor=#F7F8F9;align=left;spacingLeft=5;strokeColor=#DEE1E6;html=1;strokeWidth=2;fontSize=12" vertex="1" parent="1">
          <mxGeometry x="514.5" y="1087.5" width="100" height="30" as="geometry"/>
        </mxCell>
        <mxCell id="dsuj58FTNG9rejuF7BOc-21" value="多态图标" style="fillColor=none;strokeColor=none;html=1;fontSize=11;fontStyle=0;align=center;fontColor=#596780;fontStyle=1;fontSize=11" vertex="1" parent="1">
          <mxGeometry x="123" y="1152.5" width="60" height="20" as="geometry"/>
        </mxCell>
        <mxCell id="dsuj58FTNG9rejuF7BOc-22" value="xxx.png" style="rounded=1;arcSize=9;fillColor=#F7F8F9;align=left;spacingLeft=5;strokeColor=#DEE1E6;html=1;strokeWidth=2;fontSize=12" vertex="1" parent="1">
          <mxGeometry x="203" y="1147.5" width="100" height="30" as="geometry"/>
        </mxCell>
        <mxCell id="dsuj58FTNG9rejuF7BOc-23" value="多态图标按下" style="fillColor=none;strokeColor=none;html=1;fontSize=11;fontStyle=0;align=center;fontColor=#596780;fontStyle=1;fontSize=11" vertex="1" parent="1">
          <mxGeometry x="437" y="1147.5" width="60" height="20" as="geometry"/>
        </mxCell>
        <mxCell id="dsuj58FTNG9rejuF7BOc-24" value="xxx.png" style="rounded=1;arcSize=9;fillColor=#F7F8F9;align=left;spacingLeft=5;strokeColor=#DEE1E6;html=1;strokeWidth=2;fontSize=12" vertex="1" parent="1">
          <mxGeometry x="515" y="1142.5" width="100" height="30" as="geometry"/>
        </mxCell>
        <mxCell id="dsuj58FTNG9rejuF7BOc-25" value="三态图标" style="fillColor=none;strokeColor=none;html=1;fontSize=11;fontStyle=0;align=center;fontColor=#596780;fontStyle=1;fontSize=11" vertex="1" parent="1">
          <mxGeometry x="124.5" y="1212.5" width="60" height="20" as="geometry"/>
        </mxCell>
        <mxCell id="dsuj58FTNG9rejuF7BOc-26" value="xxx.png" style="rounded=1;arcSize=9;fillColor=#F7F8F9;align=left;spacingLeft=5;strokeColor=#DEE1E6;html=1;strokeWidth=2;fontSize=12" vertex="1" parent="1">
          <mxGeometry x="204.5" y="1207.5" width="100" height="30" as="geometry"/>
        </mxCell>
        <mxCell id="dsuj58FTNG9rejuF7BOc-27" value="三态图标按下" style="fillColor=none;strokeColor=none;html=1;fontSize=11;fontStyle=0;align=center;fontColor=#596780;fontStyle=1;fontSize=11" vertex="1" parent="1">
          <mxGeometry x="444" y="1212.5" width="60" height="20" as="geometry"/>
        </mxCell>
        <mxCell id="dsuj58FTNG9rejuF7BOc-28" value="xxx.png" style="rounded=1;arcSize=9;fillColor=#F7F8F9;align=left;spacingLeft=5;strokeColor=#DEE1E6;html=1;strokeWidth=2;fontSize=12" vertex="1" parent="1">
          <mxGeometry x="522" y="1207.5" width="100" height="30" as="geometry"/>
        </mxCell>
        <mxCell id="dsuj58FTNG9rejuF7BOc-29" value="背景图片" style="fillColor=none;strokeColor=none;html=1;fontSize=11;fontStyle=0;align=center;fontColor=#596780;fontStyle=1;fontSize=11" vertex="1" parent="1">
          <mxGeometry x="122" y="1310" width="60" height="20" as="geometry"/>
        </mxCell>
        <mxCell id="dsuj58FTNG9rejuF7BOc-30" value="KeyBg_Function" style="rounded=1;fillColor=#253858;strokeColor=none;html=1;fontColor=#ffffff;align=left;fontSize=12;spacingLeft=10" vertex="1" parent="1">
          <mxGeometry x="206" y="1302.5" width="137" height="35" as="geometry"/>
        </mxCell>
        <mxCell id="dsuj58FTNG9rejuF7BOc-31" value="" style="shape=triangle;direction=south;fillColor=#ffffff;strokeColor=none;html=1" vertex="1" parent="dsuj58FTNG9rejuF7BOc-30">
          <mxGeometry x="1" y="0.5" width="12" height="6" relative="1" as="geometry">
            <mxPoint x="-20" y="-3" as="offset"/>
          </mxGeometry>
        </mxCell>
        <mxCell id="dsuj58FTNG9rejuF7BOc-32" value="" style="rounded=1;fillColor=#ffffff;strokeColor=#DFE1E5;shadow=1;html=1;arcSize=4;align=center;" vertex="1" parent="1">
          <mxGeometry x="367" y="1297.5" width="110" height="110" as="geometry"/>
        </mxCell>
        <mxCell id="dsuj58FTNG9rejuF7BOc-33" value="KeyBg_Function" style="rounded=0;fillColor=#F4F5F7;strokeColor=none;shadow=0;html=1;align=center;fontSize=12;spacingLeft=10;fontColor=#253858;resizeWidth=1" vertex="1" parent="dsuj58FTNG9rejuF7BOc-32">
          <mxGeometry width="110" height="33" relative="1" as="geometry">
            <mxPoint y="6" as="offset"/>
          </mxGeometry>
        </mxCell>
        <mxCell id="dsuj58FTNG9rejuF7BOc-34" value="KeyBg_Default" style="rounded=0;fillColor=none;strokeColor=none;shadow=0;html=1;align=center;fontSize=12;spacingLeft=10;fontColor=#253858;resizeWidth=1" vertex="1" parent="dsuj58FTNG9rejuF7BOc-32">
          <mxGeometry width="110" height="33" relative="1" as="geometry">
            <mxPoint y="39" as="offset"/>
          </mxGeometry>
        </mxCell>
        <mxCell id="dsuj58FTNG9rejuF7BOc-35" value="xxxx" style="rounded=0;fillColor=none;strokeColor=none;shadow=0;html=1;align=center;fontSize=12;spacingLeft=10;fontColor=#253858;resizeWidth=1" vertex="1" parent="dsuj58FTNG9rejuF7BOc-32">
          <mxGeometry width="110" height="33" relative="1" as="geometry">
            <mxPoint y="72" as="offset"/>
          </mxGeometry>
        </mxCell>
        <mxCell id="dsuj58FTNG9rejuF7BOc-36" value="按键编码" style="fillColor=none;strokeColor=none;html=1;fontSize=11;fontStyle=0;align=center;fontColor=#596780;fontStyle=1;fontSize=11" vertex="1" parent="1">
          <mxGeometry x="137.5" y="281.5" width="60" height="20" as="geometry"/>
        </mxCell>
        <mxCell id="dsuj58FTNG9rejuF7BOc-37" value="0x3137" style="rounded=1;arcSize=9;fillColor=#F7F8F9;align=left;spacingLeft=5;strokeColor=#DEE1E6;html=1;strokeWidth=2;fontSize=12" vertex="1" parent="1">
          <mxGeometry x="217.5" y="276.5" width="100" height="30" as="geometry"/>
        </mxCell>
        <mxCell id="dsuj58FTNG9rejuF7BOc-38" value="主丝印字符" style="fillColor=none;strokeColor=none;html=1;fontSize=11;fontStyle=0;align=center;fontColor=#596780;fontStyle=1;fontSize=11" vertex="1" parent="1">
          <mxGeometry x="134" y="331.5" width="60" height="20" as="geometry"/>
        </mxCell>
        <mxCell id="dsuj58FTNG9rejuF7BOc-39" value="#" style="rounded=1;arcSize=9;fillColor=#F7F8F9;align=left;spacingLeft=5;strokeColor=#DEE1E6;html=1;strokeWidth=2;fontSize=12" vertex="1" parent="1">
          <mxGeometry x="217" y="326.5" width="100" height="30" as="geometry"/>
        </mxCell>
        <mxCell id="dsuj58FTNG9rejuF7BOc-40" value="副丝印字符" style="fillColor=none;strokeColor=none;html=1;fontSize=11;fontStyle=0;align=center;fontColor=#596780;fontStyle=1;fontSize=11" vertex="1" parent="1">
          <mxGeometry x="135.5" y="381.5" width="60" height="20" as="geometry"/>
        </mxCell>
        <mxCell id="dsuj58FTNG9rejuF7BOc-41" value="3" style="rounded=1;arcSize=9;fillColor=#F7F8F9;align=left;spacingLeft=5;strokeColor=#DEE1E6;html=1;strokeWidth=2;fontSize=12" vertex="1" parent="1">
          <mxGeometry x="218.5" y="376.5" width="100" height="30" as="geometry"/>
        </mxCell>
        <mxCell id="dsuj58FTNG9rejuF7BOc-42" value="副丝印编码" style="fillColor=none;strokeColor=none;html=1;fontSize=11;fontStyle=0;align=center;fontColor=#596780;fontStyle=1;fontSize=11" vertex="1" parent="1">
          <mxGeometry x="351.5" y="381.5" width="60" height="20" as="geometry"/>
        </mxCell>
        <mxCell id="dsuj58FTNG9rejuF7BOc-43" value="0x0033" style="rounded=1;arcSize=9;fillColor=#F7F8F9;align=left;spacingLeft=5;strokeColor=#DEE1E6;html=1;strokeWidth=2;fontSize=12" vertex="1" parent="1">
          <mxGeometry x="436.5" y="376.5" width="100" height="30" as="geometry"/>
        </mxCell>
        <mxCell id="dsuj58FTNG9rejuF7BOc-44" value="长按弹泡字符" style="fillColor=none;strokeColor=none;html=1;fontSize=11;fontStyle=0;align=center;fontColor=#596780;fontStyle=1;fontSize=11" vertex="1" parent="1">
          <mxGeometry x="135" y="431.5" width="60" height="20" as="geometry"/>
        </mxCell>
        <mxCell id="dsuj58FTNG9rejuF7BOc-45" value="3" style="rounded=1;arcSize=9;fillColor=#F7F8F9;align=left;spacingLeft=5;strokeColor=#DEE1E6;html=1;strokeWidth=2;fontSize=12" vertex="1" parent="1">
          <mxGeometry x="218" y="426.5" width="100" height="30" as="geometry"/>
        </mxCell>
        <mxCell id="dsuj58FTNG9rejuF7BOc-46" value="长按弹泡编码" style="fillColor=none;strokeColor=none;html=1;fontSize=11;fontStyle=0;align=center;fontColor=#596780;fontStyle=1;fontSize=11" vertex="1" parent="1">
          <mxGeometry x="351.5" y="431.5" width="60" height="20" as="geometry"/>
        </mxCell>
        <mxCell id="dsuj58FTNG9rejuF7BOc-47" value="0x0033" style="rounded=1;arcSize=9;fillColor=#F7F8F9;align=left;spacingLeft=5;strokeColor=#DEE1E6;html=1;strokeWidth=2;fontSize=12" vertex="1" parent="1">
          <mxGeometry x="436.5" y="426.5" width="100" height="30" as="geometry"/>
        </mxCell>
        <mxCell id="dsuj58FTNG9rejuF7BOc-48" value="支持长按" style="fillColor=none;strokeColor=none;html=1;fontSize=11;fontStyle=0;align=center;fontColor=#596780;fontStyle=1;fontSize=11" vertex="1" parent="1">
          <mxGeometry x="128" y="504" width="60" height="20" as="geometry"/>
        </mxCell>
        <mxCell id="dsuj58FTNG9rejuF7BOc-49" value="true" style="rounded=1;fillColor=#253858;strokeColor=none;html=1;fontColor=#ffffff;align=left;fontSize=12;spacingLeft=10" vertex="1" parent="1">
          <mxGeometry x="208" y="496.5" width="114" height="35" as="geometry"/>
        </mxCell>
        <mxCell id="dsuj58FTNG9rejuF7BOc-50" value="" style="shape=triangle;direction=south;fillColor=#ffffff;strokeColor=none;html=1" vertex="1" parent="dsuj58FTNG9rejuF7BOc-49">
          <mxGeometry x="1" y="0.5" width="12" height="6" relative="1" as="geometry">
            <mxPoint x="-20" y="-3" as="offset"/>
          </mxGeometry>
        </mxCell>
        <mxCell id="dsuj58FTNG9rejuF7BOc-51" value="" style="rounded=1;fillColor=#ffffff;strokeColor=#DFE1E5;shadow=1;html=1;arcSize=4;align=center;" vertex="1" parent="1">
          <mxGeometry x="610.5" y="486.5" width="102" height="70" as="geometry"/>
        </mxCell>
        <mxCell id="dsuj58FTNG9rejuF7BOc-52" value="true" style="rounded=0;fillColor=#F4F5F7;strokeColor=none;shadow=0;html=1;align=center;fontSize=12;spacingLeft=10;fontColor=#253858;resizeWidth=1" vertex="1" parent="dsuj58FTNG9rejuF7BOc-51">
          <mxGeometry width="102" height="33" relative="1" as="geometry">
            <mxPoint y="6" as="offset"/>
          </mxGeometry>
        </mxCell>
        <mxCell id="dsuj58FTNG9rejuF7BOc-53" value="false" style="rounded=0;fillColor=none;strokeColor=none;shadow=0;html=1;align=center;fontSize=12;spacingLeft=10;fontColor=#253858;resizeWidth=1" vertex="1" parent="dsuj58FTNG9rejuF7BOc-51">
          <mxGeometry width="102" height="33" relative="1" as="geometry">
            <mxPoint y="39" as="offset"/>
          </mxGeometry>
        </mxCell>
        <mxCell id="dsuj58FTNG9rejuF7BOc-54" value="是否功能按键" style="fillColor=none;strokeColor=none;html=1;fontSize=11;fontStyle=0;align=center;fontColor=#596780;fontStyle=1;fontSize=11" vertex="1" parent="1">
          <mxGeometry x="350.5" y="504" width="60" height="20" as="geometry"/>
        </mxCell>
        <mxCell id="dsuj58FTNG9rejuF7BOc-55" value="true" style="rounded=1;fillColor=#253858;strokeColor=none;html=1;fontColor=#ffffff;align=left;fontSize=12;spacingLeft=10" vertex="1" parent="1">
          <mxGeometry x="425.5" y="496.5" width="110" height="35" as="geometry"/>
        </mxCell>
        <mxCell id="dsuj58FTNG9rejuF7BOc-56" value="" style="shape=triangle;direction=south;fillColor=#ffffff;strokeColor=none;html=1" vertex="1" parent="dsuj58FTNG9rejuF7BOc-55">
          <mxGeometry x="1" y="0.5" width="12" height="6" relative="1" as="geometry">
            <mxPoint x="-20" y="-3" as="offset"/>
          </mxGeometry>
        </mxCell>
        <mxCell id="dsuj58FTNG9rejuF7BOc-57" value="前景配置" style="fillColor=none;strokeColor=none;html=1;fontSize=11;fontStyle=0;align=center;fontColor=#596780;fontStyle=1;fontSize=11" vertex="1" parent="1">
          <mxGeometry x="136.5" y="690" width="60" height="20" as="geometry"/>
        </mxCell>
        <mxCell id="dsuj58FTNG9rejuF7BOc-58" value="FgStyle_XX" style="rounded=1;fillColor=#253858;strokeColor=none;html=1;fontColor=#ffffff;align=left;fontSize=12;spacingLeft=10" vertex="1" parent="1">
          <mxGeometry x="214.5" y="682.5" width="110" height="35" as="geometry"/>
        </mxCell>
        <mxCell id="dsuj58FTNG9rejuF7BOc-59" value="" style="shape=triangle;direction=south;fillColor=#ffffff;strokeColor=none;html=1" vertex="1" parent="dsuj58FTNG9rejuF7BOc-58">
          <mxGeometry x="1" y="0.5" width="12" height="6" relative="1" as="geometry">
            <mxPoint x="-20" y="-3" as="offset"/>
          </mxGeometry>
        </mxCell>
        <mxCell id="dsuj58FTNG9rejuF7BOc-60" value="" style="rounded=1;fillColor=#ffffff;strokeColor=#DFE1E5;shadow=1;html=1;arcSize=4;align=center;" vertex="1" parent="1">
          <mxGeometry x="357" y="677.5" width="102" height="70" as="geometry"/>
        </mxCell>
        <mxCell id="dsuj58FTNG9rejuF7BOc-61" value="FgStyle_XX" style="rounded=0;fillColor=#F4F5F7;strokeColor=none;shadow=0;html=1;align=center;fontSize=12;spacingLeft=10;fontColor=#253858;resizeWidth=1" vertex="1" parent="dsuj58FTNG9rejuF7BOc-60">
          <mxGeometry width="102" height="33" relative="1" as="geometry">
            <mxPoint y="6" as="offset"/>
          </mxGeometry>
        </mxCell>
        <mxCell id="dsuj58FTNG9rejuF7BOc-62" value="前景配置列表" style="rounded=0;fillColor=none;strokeColor=none;shadow=0;html=1;align=center;fontSize=12;spacingLeft=10;fontColor=#253858;resizeWidth=1" vertex="1" parent="dsuj58FTNG9rejuF7BOc-60">
          <mxGeometry width="102" height="33" relative="1" as="geometry">
            <mxPoint y="39" as="offset"/>
          </mxGeometry>
        </mxCell>
        <mxCell id="dsuj58FTNG9rejuF7BOc-63" value="弹泡背景配置" style="fillColor=none;strokeColor=none;html=1;fontSize=11;fontStyle=0;align=center;fontColor=#596780;fontStyle=1;fontSize=11" vertex="1" parent="1">
          <mxGeometry x="127" y="772" width="60" height="20" as="geometry"/>
        </mxCell>
        <mxCell id="dsuj58FTNG9rejuF7BOc-64" value="" style="rounded=1;fillColor=#ffffff;strokeColor=#DFE1E5;shadow=1;html=1;arcSize=4;align=center;" vertex="1" parent="1">
          <mxGeometry x="662.5" y="737.5" width="120" height="80" as="geometry"/>
        </mxCell>
        <mxCell id="dsuj58FTNG9rejuF7BOc-65" value="&lt;span style=&quot;color: rgb(0 , 0 , 0) ; text-align: left&quot;&gt;PopupBG_Phone&lt;/span&gt;" style="rounded=0;fillColor=#F4F5F7;strokeColor=none;shadow=0;html=1;align=center;fontSize=12;spacingLeft=10;fontColor=#253858;resizeWidth=1" vertex="1" parent="dsuj58FTNG9rejuF7BOc-64">
          <mxGeometry width="120" height="33" relative="1" as="geometry">
            <mxPoint y="6" as="offset"/>
          </mxGeometry>
        </mxCell>
        <mxCell id="dsuj58FTNG9rejuF7BOc-66" value="配置列表" style="rounded=0;fillColor=none;strokeColor=none;shadow=0;html=1;align=center;fontSize=12;spacingLeft=10;fontColor=#253858;resizeWidth=1" vertex="1" parent="dsuj58FTNG9rejuF7BOc-64">
          <mxGeometry width="120" height="33" relative="1" as="geometry">
            <mxPoint y="39" as="offset"/>
          </mxGeometry>
        </mxCell>
        <mxCell id="dsuj58FTNG9rejuF7BOc-67" value="弹泡前景配置" style="fillColor=none;strokeColor=none;html=1;fontSize=11;fontStyle=0;align=center;fontColor=#596780;fontStyle=1;fontSize=11" vertex="1" parent="1">
          <mxGeometry x="126" y="828" width="60" height="20" as="geometry"/>
        </mxCell>
        <mxCell id="dsuj58FTNG9rejuF7BOc-68" value="FGStyle_Phone_Popup" style="rounded=1;fillColor=#253858;strokeColor=none;html=1;fontColor=#ffffff;align=left;fontSize=12;spacingLeft=10" vertex="1" parent="1">
          <mxGeometry x="212" y="820.5" width="160" height="35" as="geometry"/>
        </mxCell>
        <mxCell id="dsuj58FTNG9rejuF7BOc-69" value="" style="shape=triangle;direction=south;fillColor=#ffffff;strokeColor=none;html=1" vertex="1" parent="dsuj58FTNG9rejuF7BOc-68">
          <mxGeometry x="1" y="0.5" width="12" height="6" relative="1" as="geometry">
            <mxPoint x="-20" y="-3" as="offset"/>
          </mxGeometry>
        </mxCell>
        <mxCell id="dsuj58FTNG9rejuF7BOc-70" value="" style="rounded=1;fillColor=#ffffff;strokeColor=#DFE1E5;shadow=1;html=1;arcSize=4;align=center;" vertex="1" parent="1">
          <mxGeometry x="507" y="807.5" width="142" height="80" as="geometry"/>
        </mxCell>
        <mxCell id="dsuj58FTNG9rejuF7BOc-71" value="FGStyle_Phone_Popup" style="rounded=0;fillColor=#F4F5F7;strokeColor=none;shadow=0;html=1;align=center;fontSize=12;spacingLeft=10;fontColor=#253858;resizeWidth=1" vertex="1" parent="dsuj58FTNG9rejuF7BOc-70">
          <mxGeometry width="142" height="33" relative="1" as="geometry">
            <mxPoint y="6" as="offset"/>
          </mxGeometry>
        </mxCell>
        <mxCell id="dsuj58FTNG9rejuF7BOc-72" value="前景配置列表" style="rounded=0;fillColor=none;strokeColor=none;shadow=0;html=1;align=center;fontSize=12;spacingLeft=10;fontColor=#253858;resizeWidth=1" vertex="1" parent="dsuj58FTNG9rejuF7BOc-70">
          <mxGeometry width="142" height="33" relative="1" as="geometry">
            <mxPoint y="39" as="offset"/>
          </mxGeometry>
        </mxCell>
        <mxCell id="dsuj58FTNG9rejuF7BOc-73" value="PopupBG_Phone,PopupBG_Phone_Slide" style="rounded=1;arcSize=9;fillColor=#F7F8F9;align=left;spacingLeft=5;strokeColor=#DEE1E6;html=1;strokeWidth=2;fontSize=12" vertex="1" parent="1">
          <mxGeometry x="212.5" y="765.5" width="280" height="33" as="geometry"/>
        </mxCell>
        <mxCell id="dsuj58FTNG9rejuF7BOc-74" value="添加" style="rounded=1;fillColor=#0057D8;align=center;strokeColor=none;html=1;fontColor=#ffffff;fontSize=12" vertex="1" parent="1">
          <mxGeometry x="526.5" y="762" width="86" height="33" as="geometry"/>
        </mxCell>
        <mxCell id="dsuj58FTNG9rejuF7BOc-75" value="复制按键" style="fillColor=none;strokeColor=none;html=1;fontSize=11;fontStyle=0;align=center;fontColor=#596780;fontStyle=1;fontSize=11" vertex="1" parent="1">
          <mxGeometry x="120.5" y="907.5" width="60" height="20" as="geometry"/>
        </mxCell>
        <mxCell id="dsuj58FTNG9rejuF7BOc-76" style="edgeStyle=orthogonalEdgeStyle;rounded=0;orthogonalLoop=1;jettySize=auto;html=1;" edge="1" parent="1" source="dsuj58FTNG9rejuF7BOc-77">
          <mxGeometry relative="1" as="geometry">
            <mxPoint x="347" y="917.5" as="targetPoint"/>
          </mxGeometry>
        </mxCell>
        <mxCell id="dsuj58FTNG9rejuF7BOc-77" value="Key_ABC" style="rounded=1;arcSize=9;fillColor=#F7F8F9;align=left;spacingLeft=5;strokeColor=#DEE1E6;html=1;strokeWidth=2;fontSize=12" vertex="1" parent="1">
          <mxGeometry x="189" y="902.5" width="100" height="30" as="geometry"/>
        </mxCell>
        <mxCell id="dsuj58FTNG9rejuF7BOc-78" value="" style="rounded=1;fillColor=#ffffff;strokeColor=#DFE1E5;shadow=1;html=1;arcSize=4;align=center;" vertex="1" parent="1">
          <mxGeometry x="357" y="877.5" width="142" height="80" as="geometry"/>
        </mxCell>
        <mxCell id="dsuj58FTNG9rejuF7BOc-79" value="Key_ABC" style="rounded=0;fillColor=#F4F5F7;strokeColor=none;shadow=0;html=1;align=center;fontSize=12;spacingLeft=10;fontColor=#253858;resizeWidth=1" vertex="1" parent="dsuj58FTNG9rejuF7BOc-78">
          <mxGeometry width="142" height="33" relative="1" as="geometry">
            <mxPoint y="6" as="offset"/>
          </mxGeometry>
        </mxCell>
        <mxCell id="dsuj58FTNG9rejuF7BOc-80" value="主线按键配置列表" style="rounded=0;fillColor=none;strokeColor=none;shadow=0;html=1;align=center;fontSize=12;spacingLeft=10;fontColor=#253858;resizeWidth=1" vertex="1" parent="dsuj58FTNG9rejuF7BOc-78">
          <mxGeometry width="142" height="33" relative="1" as="geometry">
            <mxPoint y="39" as="offset"/>
          </mxGeometry>
        </mxCell>
        <mxCell id="dsuj58FTNG9rejuF7BOc-81" value="滑动类型" style="fillColor=none;strokeColor=none;html=1;fontSize=11;fontStyle=0;align=center;fontColor=#596780;fontStyle=1;fontSize=11" vertex="1" parent="1">
          <mxGeometry x="123.5" y="1010" width="60" height="20" as="geometry"/>
        </mxCell>
        <mxCell id="dsuj58FTNG9rejuF7BOc-82" value="8" style="rounded=1;arcSize=9;fillColor=#F7F8F9;align=left;spacingLeft=5;strokeColor=#DEE1E6;html=1;strokeWidth=2;fontSize=12" vertex="1" parent="1">
          <mxGeometry x="192" y="1005" width="100" height="30" as="geometry"/>
        </mxCell>
        <mxCell id="dsuj58FTNG9rejuF7BOc-83" value="长按弹泡索引" style="fillColor=none;strokeColor=none;html=1;fontSize=11;fontStyle=0;align=center;fontColor=#596780;fontStyle=1;fontSize=11" vertex="1" parent="1">
          <mxGeometry x="561.5" y="431.5" width="60" height="20" as="geometry"/>
        </mxCell>
        <mxCell id="dsuj58FTNG9rejuF7BOc-84" value="1" style="rounded=1;arcSize=9;fillColor=#F7F8F9;align=left;spacingLeft=5;strokeColor=#DEE1E6;html=1;strokeWidth=2;fontSize=12" vertex="1" parent="1">
          <mxGeometry x="646.5" y="426.5" width="100" height="30" as="geometry"/>
        </mxCell>
        <mxCell id="dsuj58FTNG9rejuF7BOc-85" value="中丝印字符" style="fillColor=none;strokeColor=none;html=1;fontSize=11;fontStyle=0;align=center;fontColor=#596780;fontStyle=1;fontSize=11" vertex="1" parent="1">
          <mxGeometry x="352" y="331.5" width="60" height="20" as="geometry"/>
        </mxCell>
        <mxCell id="dsuj58FTNG9rejuF7BOc-86" value="#" style="rounded=1;arcSize=9;fillColor=#F7F8F9;align=left;spacingLeft=5;strokeColor=#DEE1E6;html=1;strokeWidth=2;fontSize=12" vertex="1" parent="1">
          <mxGeometry x="435" y="326.5" width="100" height="30" as="geometry"/>
        </mxCell>
        <mxCell id="dsuj58FTNG9rejuF7BOc-87" value="文本" style="fillColor=none;strokeColor=none;html=1;fontSize=11;fontStyle=0;align=center;fontColor=#596780;fontStyle=1;fontSize=11" vertex="1" parent="1">
          <mxGeometry x="353" y="279.5" width="60" height="20" as="geometry"/>
        </mxCell>
        <mxCell id="dsuj58FTNG9rejuF7BOc-88" value="?" style="rounded=1;arcSize=9;fillColor=#F7F8F9;align=left;spacingLeft=5;strokeColor=#DEE1E6;html=1;strokeWidth=2;fontSize=12" vertex="1" parent="1">
          <mxGeometry x="433" y="274.5" width="100" height="30" as="geometry"/>
        </mxCell>
        <mxCell id="dsuj58FTNG9rejuF7BOc-89" value="&lt;span style=&quot;color: rgb(0 , 0 , 0)&quot;&gt;按键属性&lt;/span&gt;" style="rounded=1;align=center;fillColor=#F1F2F4;strokeColor=none;html=1;fontColor=#596780;fontSize=12" vertex="1" parent="1">
          <mxGeometry x="134" y="100" width="80" height="33" as="geometry"/>
        </mxCell>
        <mxCell id="dsuj58FTNG9rejuF7BOc-90" value="&lt;span style=&quot;color: rgb(0 , 0 , 0)&quot;&gt;按键设计&lt;/span&gt;" style="rounded=1;align=center;fillColor=#F1F2F4;strokeColor=none;html=1;fontColor=#596780;fontSize=12" vertex="1" parent="1">
          <mxGeometry x="124" y="617.5" width="80" height="33" as="geometry"/>
        </mxCell>
        <mxCell id="dsuj58FTNG9rejuF7BOc-91" value="选择" style="rounded=1;fillColor=#0057D8;align=center;strokeColor=none;html=1;fontColor=#ffffff;fontSize=12" vertex="1" parent="1">
          <mxGeometry x="321" y="1085.5" width="57" height="33" as="geometry"/>
        </mxCell>
        <mxCell id="dsuj58FTNG9rejuF7BOc-92" value="选择" style="rounded=1;fillColor=#0057D8;align=center;strokeColor=none;html=1;fontColor=#ffffff;fontSize=12" vertex="1" parent="1">
          <mxGeometry x="645" y="1086" width="57" height="33" as="geometry"/>
        </mxCell>
        <mxCell id="dsuj58FTNG9rejuF7BOc-93" value="选择" style="rounded=1;fillColor=#0057D8;align=center;strokeColor=none;html=1;fontColor=#ffffff;fontSize=12" vertex="1" parent="1">
          <mxGeometry x="322.5" y="1146" width="57" height="33" as="geometry"/>
        </mxCell>
        <mxCell id="dsuj58FTNG9rejuF7BOc-94" value="选择" style="rounded=1;fillColor=#0057D8;align=center;strokeColor=none;html=1;fontColor=#ffffff;fontSize=12" vertex="1" parent="1">
          <mxGeometry x="645" y="1141" width="57" height="33" as="geometry"/>
        </mxCell>
        <mxCell id="dsuj58FTNG9rejuF7BOc-95" value="选择" style="rounded=1;fillColor=#0057D8;align=center;strokeColor=none;html=1;fontColor=#ffffff;fontSize=12" vertex="1" parent="1">
          <mxGeometry x="325" y="1207.5" width="57" height="33" as="geometry"/>
        </mxCell>
        <mxCell id="dsuj58FTNG9rejuF7BOc-96" value="选择" style="rounded=1;fillColor=#0057D8;align=center;strokeColor=none;html=1;fontColor=#ffffff;fontSize=12" vertex="1" parent="1">
          <mxGeometry x="649" y="1204.5" width="57" height="33" as="geometry"/>
        </mxCell>
        <mxCell id="dsuj58FTNG9rejuF7BOc-97" value="关联键盘" style="fillColor=none;strokeColor=none;html=1;fontSize=11;fontStyle=0;align=center;fontColor=#596780;fontStyle=1;fontSize=11" vertex="1" parent="1">
          <mxGeometry x="126" y="561" width="60" height="20" as="geometry"/>
        </mxCell>
        <mxCell id="dsuj58FTNG9rejuF7BOc-98" value="6422529" style="rounded=1;arcSize=9;fillColor=#F7F8F9;align=left;spacingLeft=5;strokeColor=#DEE1E6;html=1;strokeWidth=2;fontSize=12" vertex="1" parent="1">
          <mxGeometry x="209" y="556" width="100" height="30" as="geometry"/>
        </mxCell>
        <mxCell id="dsuj58FTNG9rejuF7BOc-99" value="键盘" style="html=1;shadow=0;dashed=0;shape=mxgraph.atlassian.checkbox_2;fillColor=#0057D8;strokeColor=none;align=left;verticalAlign=middle;fontStyle=0;fontSize=12;labelPosition=right;verticalLabelPosition=middle;spacingLeft=10" vertex="1" parent="1">
          <mxGeometry x="159" y="180" width="12" height="12" as="geometry"/>
        </mxCell>
        <mxCell id="dsuj58FTNG9rejuF7BOc-100" value="模板" style="rounded=1;fillColor=#F0F2F5;strokeColor=#D8DCE3;align=left;verticalAlign=middle;fontStyle=0;fontSize=12;labelPosition=right;verticalLabelPosition=middle;spacingLeft=10;html=1;shadow=0;dashed=0;arcSize=0;" vertex="1" parent="1">
          <mxGeometry x="254.5" y="180" width="12" height="12" as="geometry"/>
        </mxCell>
        <mxCell id="dsuj58FTNG9rejuF7BOc-101" value="新建" style="rounded=1;fillColor=#0057D8;align=center;strokeColor=none;html=1;fontColor=#ffffff;fontSize=12" vertex="1" parent="1">
          <mxGeometry x="279" y="100" width="86" height="33" as="geometry"/>
        </mxCell>
      </root>
    </mxGraphModel>
  </diagram>
</mxfile>
